<?xml version="1.0" standalone="no"?>
<!DOCTYPE svg PUBLIC "-//W3C//DTD SVG 20010904//EN"
 "http://www.w3.org/TR/2001/REC-SVG-20010904/DTD/svg10.dtd">
<svg version="1.0" xmlns="http://www.w3.org/2000/svg"
 width="900.000000pt" height="900.000000pt" viewBox="0 0 900.000000 900.000000"
 preserveAspectRatio="xMidYMid meet">

<g transform="translate(0.000000,900.000000) scale(0.100000,-0.100000)"
fill="#000000" stroke="none">
<path d="M4343 6013 c93 -2 241 -2 330 0 89 1 14 3 -168 3 -181 0 -254 -2
-162 -3z"/>
<path d="M4103 5990 c-57 -25 -139 -109 -164 -166 -12 -25 -18 -48 -16 -51 3
-2 15 17 27 44 29 66 93 130 165 164 33 15 53 28 45 28 -8 0 -34 -8 -57 -19z"/>
<path d="M4860 5998 c14 -6 39 -18 56 -25 58 -26 112 -82 146 -150 27 -56 32
-78 35 -157 6 -151 -31 -134 295 -138 l283 -3 52 -28 c63 -32 108 -80 145
-150 15 -29 27 -45 27 -37 1 28 -58 117 -100 154 -83 70 -124 79 -389 83 -129
2 -245 6 -257 8 -25 6 -43 55 -43 121 0 78 -36 168 -91 228 -47 52 -135 107
-168 105 -10 0 -6 -5 9 -11z"/>
<path d="M4213 5775 c-51 -22 -73 -68 -73 -150 0 -42 5 -76 12 -83 17 -17 704
-17 714 -1 14 23 5 160 -13 190 -32 53 -66 59 -351 59 -198 -1 -264 -4 -289
-15z m576 -18 c38 -19 63 -62 69 -115 4 -41 1 -53 -17 -71 -20 -20 -29 -21
-333 -21 -172 0 -318 4 -325 8 -20 13 -34 63 -27 101 9 51 21 69 57 91 30 18
52 20 292 20 187 0 267 -4 284 -13z"/>
<path d="M3906 5723 c-3 -21 -6 -59 -6 -85 0 -35 -6 -54 -20 -68 -19 -19 -33
-20 -222 -20 -112 0 -228 -4 -259 -9 -76 -13 -146 -47 -195 -96 -40 -40 -92
-131 -81 -142 4 -3 17 19 30 48 26 59 82 115 149 151 41 22 54 23 318 26 151
2 279 7 284 12 8 8 19 220 12 220 -2 0 -6 -17 -10 -37z"/>
<path d="M5904 5205 c0 -49 1 -71 3 -48 2 23 2 64 0 90 -2 26 -3 8 -3 -42z"/>
<path d="M3113 5200 c0 -47 2 -66 4 -42 2 23 2 61 0 85 -2 23 -4 4 -4 -43z"/>
<path d="M3705 5165 c-14 -13 -25 -32 -25 -42 0 -14 5 -13 26 10 38 42 62 47
204 47 141 0 174 -8 207 -48 21 -25 22 -25 23 -6 0 11 -10 30 -23 42 -22 21
-32 22 -206 22 -180 0 -182 0 -206 -25z"/>
<path d="M4903 5175 c-20 -14 -36 -49 -26 -59 3 -2 17 10 33 27 l28 32 132 4
c162 4 195 -2 232 -41 24 -26 28 -27 28 -11 0 11 -10 29 -23 41 -22 21 -32 22
-203 22 -142 0 -184 -3 -201 -15z"/>
<path d="M3283 5063 c64 -2 170 -2 235 0 64 1 11 3 -118 3 -129 0 -182 -2
-117 -3z"/>
<path d="M4348 5063 c90 -2 234 -2 320 0 86 1 13 3 -163 3 -176 0 -247 -2
-157 -3z"/>
<path d="M5503 5063 c64 -2 170 -2 235 0 64 1 11 3 -118 3 -129 0 -182 -2
-117 -3z"/>
<path d="M3200 4840 c-19 -4 71 -8 200 -8 139 0 227 3 215 8 -24 10 -366 10
-415 0z"/>
<path d="M4215 4840 c-16 -4 114 -8 290 -8 191 0 302 4 275 9 -57 10 -525 9
-565 -1z"/>
<path d="M5405 4840 c-16 -4 78 -8 210 -8 134 0 229 4 215 8 -32 10 -385 10
-425 0z"/>
<path d="M3114 4490 c0 -162 2 -229 3 -147 2 81 2 213 0 295 -1 81 -3 14 -3
-148z"/>
<path d="M3681 4737 c-2 -93 43 -111 266 -105 115 3 135 6 160 24 24 18 28 28
30 75 2 52 1 53 -9 19 -28 -95 -46 -103 -240 -98 -157 3 -173 11 -195 91 l-11
42 -1 -48z"/>
<path d="M5321 4757 c-1 -42 -26 -83 -59 -96 -20 -9 -77 -11 -177 -9 -147 3
-147 3 -171 31 -14 16 -24 41 -24 58 0 18 -4 28 -10 24 -15 -9 -12 -52 5 -84
21 -42 61 -51 219 -51 114 0 148 3 176 18 45 22 64 60 51 104 -9 33 -9 33 -10
5z"/>
<path d="M5902 4484 l-2 -300 -27 -54 c-32 -65 -86 -121 -150 -155 -26 -14
-37 -23 -23 -19 62 16 142 88 182 164 22 43 23 57 26 270 2 124 1 263 0 310
-2 47 -5 -50 -6 -216z"/>
<path d="M3125 4158 c13 -43 54 -105 90 -137 38 -33 114 -75 121 -68 3 3 -16
15 -42 27 -61 30 -106 76 -139 144 -28 58 -41 73 -30 34z"/>
<path d="M3933 3943 c317 -2 837 -2 1155 0 317 1 57 2 -578 2 -635 0 -895 -1
-577 -2z"/>
<path d="M2247 3713 c18 -2 50 -2 70 0 21 2 7 4 -32 4 -38 0 -55 -2 -38 -4z"/>
<path d="M2163 3689 c-35 -22 -46 -37 -15 -20 22 13 58 40 52 41 -3 0 -20 -10
-37 -21z"/>
<path d="M2361 3706 c2 -2 15 -9 29 -15 24 -11 24 -11 6 3 -16 13 -49 24 -35
12z"/>
<path d="M4283 3703 c48 -2 126 -2 175 0 48 1 8 3 -88 3 -96 0 -136 -2 -87 -3z"/>
<path d="M2443 3649 c45 -59 82 -220 74 -315 -7 -77 -22 -162 -36 -197 -16
-40 -13 -47 5 -14 22 41 44 152 44 227 0 138 -38 269 -92 316 -17 15 -16 12 5
-17z"/>
<path d="M3021 3583 c-1 -79 5 -86 46 -53 15 12 20 20 12 20 -28 0 -43 19 -49
62 -7 38 -8 35 -9 -29z"/>
<path d="M5445 3418 c-4 -137 -3 -260 3 -298 7 -51 10 0 11 233 0 163 -1 297
-3 297 -2 0 -7 -105 -11 -232z"/>
<path d="M5560 3360 c0 -194 4 -290 10 -280 6 9 10 126 10 280 0 154 -4 271
-10 280 -6 10 -10 -86 -10 -280z"/>
<path d="M5664 3355 c0 -165 2 -234 3 -153 2 81 2 216 0 300 -1 84 -3 18 -3
-147z"/>
<path d="M5777 3637 c-9 -24 -9 -124 1 -130 4 -3 20 5 36 18 28 22 28 23 7 30
-20 6 -27 22 -33 75 -3 21 -4 22 -11 7z"/>
<path d="M2096 3617 c-34 -51 -48 -145 -44 -291 3 -117 8 -149 25 -188 26 -57
37 -63 18 -10 -33 92 -36 120 -32 242 4 131 13 185 40 238 18 37 14 42 -7 9z"/>
<path d="M2900 3602 c0 -24 -8 -49 -20 -65 -25 -31 -26 -63 -2 -76 15 -8 18
-32 22 -203 3 -106 8 -186 11 -178 11 28 11 548 0 555 -7 4 -11 -8 -11 -33z"/>
<path d="M2244 3621 c-54 -23 -79 -132 -72 -311 6 -138 23 -184 78 -214 34
-18 37 -18 72 -2 64 31 73 64 73 266 0 181 -6 214 -48 249 -20 16 -77 23 -103
12z m75 -26 c39 -20 60 -79 68 -189 7 -119 -10 -226 -44 -266 -46 -55 -118
-30 -142 50 -29 97 -23 290 11 366 11 23 50 53 71 54 4 0 21 -7 36 -15z"/>
<path d="M4210 3600 c0 -5 11 -10 25 -10 14 0 34 -9 45 -20 19 -19 20 -33 20
-256 0 -154 3 -233 10 -229 11 7 15 482 4 509 -4 12 -20 16 -55 16 -27 0 -49
-4 -49 -10z"/>
<path d="M4429 3593 c-2 -10 -2 -133 1 -273 l6 -255 2 243 c2 227 3 243 22
262 11 11 31 20 45 20 14 0 25 5 25 10 0 6 -22 10 -49 10 -38 0 -49 -4 -52
-17z"/>
<path d="M3123 3553 c9 -2 23 -2 30 0 6 3 -1 5 -18 5 -16 0 -22 -2 -12 -5z"/>
<path d="M3713 3553 c15 -2 39 -2 55 0 15 2 2 4 -28 4 -30 0 -43 -2 -27 -4z"/>
<path d="M4718 3553 c12 -2 32 -2 45 0 12 2 2 4 -23 4 -25 0 -35 -2 -22 -4z"/>
<path d="M5163 3553 c15 -2 37 -2 50 0 12 2 0 4 -28 4 -27 0 -38 -2 -22 -4z"/>
<path d="M5883 3553 c9 -2 23 -2 30 0 6 3 -1 5 -18 5 -16 0 -22 -2 -12 -5z"/>
<path d="M6288 3553 c12 -2 32 -2 45 0 12 2 2 4 -23 4 -25 0 -35 -2 -22 -4z"/>
<path d="M2728 3533 c-18 -4 -26 -43 -10 -43 5 0 19 11 32 25 23 25 18 29 -22
18z"/>
<path d="M6430 3516 c0 -2 8 -10 18 -17 15 -13 16 -12 3 4 -13 16 -21 21 -21
13z"/>
<path d="M6150 3480 c-6 -11 -8 -20 -6 -20 3 0 10 9 16 20 6 11 8 20 6 20 -3
0 -10 -9 -16 -20z"/>
<path d="M6670 3497 c0 -13 49 -105 60 -112 6 -4 21 17 35 50 30 68 31 76 4
41 -26 -33 -48 -33 -76 2 -12 15 -22 23 -23 19z"/>
<path d="M2604 3280 c0 -118 2 -167 3 -107 2 59 2 155 0 215 -1 59 -3 10 -3
-108z"/>
<path d="M3364 3280 c0 -118 2 -167 3 -107 2 59 2 155 0 215 -1 59 -3 10 -3
-108z"/>
<path d="M4579 3473 c-13 -16 -12 -17 4 -4 9 7 17 15 17 17 0 8 -8 3 -21 -13z"/>
<path d="M5020 3470 c-6 -11 -8 -20 -6 -20 3 0 10 9 16 20 6 11 8 20 6 20 -3
0 -10 -9 -16 -20z"/>
<path d="M3476 3464 c-11 -27 -7 -384 4 -384 6 0 10 73 10 200 0 110 -2 200
-4 200 -2 0 -7 -7 -10 -16z"/>
<path d="M3681 3454 c-45 -58 -18 -91 117 -142 68 -26 58 -12 -15 23 -94 44
-114 73 -75 108 25 23 35 21 71 -9 l31 -26 -10 28 c-14 35 -26 44 -67 44 -22
0 -38 -8 -52 -26z"/>
<path d="M4709 3465 c-41 -22 -54 -67 -54 -190 0 -149 21 -195 88 -195 13 0
36 9 50 20 21 17 26 31 32 100 4 44 4 112 0 152 -6 60 -12 77 -35 100 -32 31
-44 33 -81 13z m56 -21 c33 -13 48 -65 49 -164 1 -107 -14 -157 -51 -171 -59
-22 -96 42 -95 166 0 129 36 192 97 169z"/>
<path d="M4905 3460 c3 -14 12 -50 20 -80 8 -30 15 -75 15 -100 0 -54 -33
-184 -52 -207 -11 -14 -11 -16 0 -9 8 5 27 37 43 72 15 35 31 64 34 64 3 0 14
-18 23 -40 17 -40 17 -40 17 120 0 160 0 160 -17 120 -9 -22 -20 -40 -23 -40
-3 0 -19 28 -36 63 -16 34 -27 51 -24 37z"/>
<path d="M5140 3453 c-38 -35 -55 -121 -45 -236 6 -62 12 -84 32 -108 33 -38
79 -40 114 -3 23 25 24 31 24 171 l0 145 -33 29 c-40 36 -54 36 -92 2z m79
-20 c52 -43 55 -257 5 -308 -9 -8 -29 -15 -44 -15 -43 0 -62 36 -68 125 -6
101 4 162 33 191 29 29 45 30 74 7z"/>
<path d="M5341 3480 c0 -3 6 -27 15 -55 22 -74 26 -195 9 -262 -19 -74 -11
-81 10 -8 23 79 17 223 -12 285 -12 25 -22 43 -22 40z"/>
<path d="M6280 3467 c-45 -22 -60 -70 -60 -190 0 -148 23 -198 92 -197 59 1
88 65 88 195 0 111 -23 179 -65 195 -31 12 -25 12 -55 -3z m71 -43 c22 -23 24
-35 27 -137 2 -97 0 -116 -17 -143 -28 -45 -57 -49 -92 -14 -28 28 -29 31 -29
140 0 78 4 119 15 140 24 47 60 52 96 14z"/>
<path d="M6560 3476 c0 -5 18 -44 40 -88 22 -44 40 -90 40 -102 0 -12 -20 -61
-45 -108 -25 -48 -45 -90 -45 -95 0 -15 19 14 59 90 23 43 47 86 53 96 9 15 1
36 -45 117 -31 54 -57 95 -57 90z"/>
<path d="M3058 3450 c-37 -28 -51 -93 -45 -199 6 -101 20 -140 59 -159 61 -29
106 34 116 161 7 92 -20 195 -55 208 -35 13 -47 11 -75 -11z m69 -18 c39 -24
55 -155 32 -248 -22 -87 -95 -97 -120 -16 -17 57 -8 211 14 245 17 27 49 35
74 19z"/>
<path d="M5824 3458 c-39 -19 -54 -69 -54 -187 0 -96 3 -112 23 -141 27 -40
56 -52 88 -36 35 17 51 59 56 150 11 171 -33 253 -113 214z m80 -51 c18 -24
21 -42 21 -125 0 -72 -5 -105 -18 -129 -19 -36 -48 -49 -75 -34 -34 18 -44 63
-40 174 2 87 6 109 22 126 26 29 63 24 90 -12z"/>
<path d="M6887 3463 c-32 -53 -87 -166 -87 -178 0 -15 74 -162 91 -180 17 -18
9 6 -31 82 -22 43 -40 88 -40 100 0 12 18 56 41 98 22 42 38 79 36 82 -3 2 -7
1 -10 -4z"/>
<path d="M2764 3435 c-47 -20 -54 -49 -52 -218 l1 -152 7 147 c7 161 17 189
72 212 20 9 25 15 16 18 -8 3 -27 0 -44 -7z"/>
<path d="M3285 3285 c0 -101 3 -146 9 -132 5 12 9 72 9 132 0 61 -4 120 -9
132 -6 14 -9 -31 -9 -132z"/>
<path d="M4550 3399 c-19 -69 -9 -234 18 -293 12 -27 24 -47 27 -44 2 2 -4 22
-15 44 -24 49 -36 186 -22 269 12 72 8 84 -8 24z"/>
<path d="M6044 3281 c0 -146 1 -151 12 -100 16 66 16 138 0 204 -10 45 -11 36
-12 -104z"/>
<path d="M6111 3386 c-14 -57 -13 -169 2 -220 10 -34 12 -19 12 113 0 83 -1
151 -1 151 -1 0 -7 -20 -13 -44z"/>
<path d="M3551 3404 c0 -11 3 -14 6 -6 3 7 2 16 -1 19 -3 4 -6 -2 -5 -13z"/>
<path d="M6495 3297 c0 -67 -3 -138 -7 -157 -7 -30 -6 -32 4 -15 15 24 23 240
11 272 -5 14 -8 -24 -8 -100z"/>
<path d="M3561 3364 c0 -11 3 -14 6 -6 3 7 2 16 -1 19 -3 4 -6 -2 -5 -13z"/>
<path d="M3623 3274 c3 -4 39 -23 79 -43 54 -27 75 -43 82 -63 21 -59 -62 -94
-102 -43 -23 29 -32 32 -32 10 0 -27 47 -65 80 -65 64 0 103 80 63 128 -10 11
-51 34 -92 51 -74 31 -90 36 -78 25z"/>
<path d="M3890 3245 c0 -5 5 -17 10 -25 5 -8 10 -10 10 -5 0 6 -5 17 -10 25
-5 8 -10 11 -10 5z"/>
<path d="M6689 3124 c-29 -67 -34 -102 -5 -47 8 16 22 36 31 43 15 13 20 11
39 -11 11 -15 27 -35 33 -45 13 -20 -20 75 -38 107 -16 32 -29 22 -60 -47z"/>
<path d="M3911 3143 c-1 -6 -4 -20 -7 -30 -5 -17 -5 -17 6 0 6 10 9 23 6 30
-3 9 -5 9 -5 0z"/>
<path d="M5016 3097 c3 -10 9 -15 12 -12 3 3 0 11 -7 18 -10 9 -11 8 -5 -6z"/>
<path d="M6139 3092 c6 -12 16 -24 22 -28 8 -4 8 -1 0 14 -6 12 -16 24 -22 28
-8 4 -8 1 0 -14z"/>
<path d="M6455 3074 c-9 -15 -12 -23 -6 -20 11 7 35 46 28 46 -3 0 -12 -12
-22 -26z"/>
<path d="M2449 3073 c-13 -16 -12 -17 4 -4 9 7 17 15 17 17 0 8 -8 3 -21 -13z"/>
<path d="M3250 3075 c-7 -9 -10 -18 -7 -21 3 -3 10 4 17 15 13 25 8 27 -10 6z"/>
<path d="M2130 3055 c13 -14 26 -25 28 -25 3 0 -5 11 -18 25 -13 14 -26 25
-28 25 -3 0 5 -11 18 -25z"/>
<path d="M6005 3069 c-4 -6 -5 -12 -2 -15 2 -3 7 2 10 11 7 17 1 20 -8 4z"/>
<path d="M3010 3031 c0 -5 -8 -12 -17 -14 -10 -3 -2 -5 17 -6 19 -1 46 -4 60
-7 22 -5 21 -3 -8 15 -35 23 -52 26 -52 12z"/>
<path d="M5762 3025 c-11 -13 -9 -15 15 -15 15 0 39 -3 53 -6 22 -5 21 -3 -8
15 -38 25 -43 25 -60 6z"/>
<path d="M2350 3013 c-43 -13 -102 -12 -145 3 -17 6 -18 5 -7 -7 19 -21 148
-18 187 3 36 21 25 21 -35 1z"/>
<path d="M5255 3015 c-16 -7 -23 -14 -14 -14 8 -1 24 6 35 14 24 18 18 18 -21
0z"/>
<path d="M3170 3010 c-13 -8 -13 -10 2 -10 9 0 20 5 23 10 8 13 -5 13 -25 0z"/>
<path d="M3636 3011 c6 -7 38 -14 70 -16 58 -4 58 -4 12 4 -25 5 -57 12 -70
16 -17 6 -20 4 -12 -4z"/>
<path d="M3790 3010 c-13 -8 -13 -10 2 -10 9 0 20 5 23 10 8 13 -5 13 -25 0z"/>
<path d="M4679 3004 c18 -8 36 -13 39 -10 6 6 -43 26 -61 25 -7 0 3 -7 22 -15z"/>
<path d="M4785 3005 c-25 -12 -26 -14 -5 -9 28 7 60 23 45 23 -5 0 -23 -6 -40
-14z"/>
<path d="M5115 3005 c17 -8 37 -14 45 -14 8 0 0 6 -19 14 -42 19 -66 18 -26 0z"/>
<path d="M5935 3010 c-3 -6 1 -7 9 -4 18 7 21 14 7 14 -6 0 -13 -4 -16 -10z"/>
<path d="M6226 3011 c5 -5 25 -12 44 -15 l35 -6 -35 14 c-42 17 -58 20 -44 7z"/>
<path d="M6360 3010 c-13 -9 -13 -10 0 -10 8 0 22 5 30 10 13 9 13 10 0 10 -8
0 -22 -5 -30 -10z"/>
</g>
</svg>
