<?xml version="1.0" encoding="UTF-8" standalone="no"?>
<!-- Created with Inkscape (http://www.inkscape.org/) -->

<svg
   xmlns:dc="http://purl.org/dc/elements/1.1/"
   xmlns:cc="http://creativecommons.org/ns#"
   xmlns:rdf="http://www.w3.org/1999/02/22-rdf-syntax-ns#"
   xmlns:svg="http://www.w3.org/2000/svg"
   xmlns="http://www.w3.org/2000/svg"
   xmlns:xlink="http://www.w3.org/1999/xlink"
   xmlns:sodipodi="http://sodipodi.sourceforge.net/DTD/sodipodi-0.dtd"
   xmlns:inkscape="http://www.inkscape.org/namespaces/inkscape"
   width="93.486115mm"
   height="93.486115mm"
   viewBox="0 0 93.486115 93.486115"
   version="1.1"
   id="svg8"
   inkscape:version="0.92.4 (5da689c313, 2019-01-14)"
   sodipodi:docname="henVR.svg">
  <defs
     id="defs2" />
  <g
     inkscape:label="Layer 1"
     inkscape:groupmode="layer"
     id="layer1"
     transform="translate(-57.578373,-59.000992)">
    <path
       style="fill:white"
       d="m 116.22635,136.45363 c -3.05068,-1.462 -5.4037,-3.69754 -6.003,-5.70329 -1.2723,-4.25811 0.65564,-7.95551 4.68141,-8.97803 2.43839,-0.61933 5.46806,-1.81309 5.46806,-2.15455 0,-0.18027 -0.58362,-0.57162 -1.29693,-0.86966 -2.27434,-0.95028 -7.30794,0.21326 -13.98862,3.23353 -2.34856,1.06176 -4.39038,1.93048 -4.53739,1.93048 -0.29062,0 -1.468216,-2.10994 -1.281547,-2.29619 0.240214,-0.23969 25.804337,-12.52374 25.880887,-12.43627 0.0443,0.0507 0.42209,0.89301 0.8394,1.8718 0.71238,1.67088 0.72529,1.8597 0.21133,3.08978 -0.30933,0.74033 -0.45147,1.69244 -0.32681,2.18912 0.26064,1.03846 0.10652,1.00609 1.67328,0.35145 1.12309,-0.46925 1.5462,-0.46786 3.83046,0.0127 1.41235,0.29709 2.72891,0.70074 2.92567,0.89699 0.20331,0.20277 0.40633,2.88053 0.47025,6.20241 l 0.11247,5.84559 -1.70582,1.64419 c -2.70874,2.61087 -10.57935,6.38679 -13.31278,6.38679 -0.60569,0 -2.24383,-0.54756 -3.64032,-1.21681 z m 8.43602,-2.13814 c 3.31984,-1.45964 7.53557,-4.13616 8.06091,-5.11777 0.36355,-0.6793 0.50185,-9.87173 0.14852,-9.87173 -0.11056,0 -0.89238,0.47567 -1.73737,1.05704 -2.23421,1.53718 -7.4955,4.12218 -9.44998,4.64301 -1.53251,0.40839 -1.90942,0.37381 -4.11657,-0.37761 -2.84735,-0.96937 -3.88873,-0.8243 -4.96853,0.69215 -1.94142,2.72647 -0.97453,6.08037 2.3983,8.31912 3.94048,2.61554 5.03806,2.69002 9.66472,0.65579 z m 0.40574,-5.33606 c -0.31187,-0.8127 0.26676,-1.58957 1.86492,-2.50388 1.68549,-0.96427 1.79049,-0.96986 2.24556,-0.11955 0.52846,0.98743 0.10807,1.72694 -1.42689,2.51002 -1.6502,0.84187 -2.39203,0.87322 -2.68359,0.11341 z M 102.9053,115.42509 c -0.58484,-0.17022 -6.776093,-0.35434 -13.758333,-0.40916 l -12.694982,-0.0997 V 94.631549 74.346826 l 2.043796,-0.181837 c 1.124087,-0.100011 2.290325,-0.04387 2.591638,0.124751 0.335423,0.187712 0.698802,0.155628 0.937176,-0.08275 0.735919,-0.735919 3.498723,-0.386898 7.954989,1.004943 2.455238,0.766852 6.567506,2.043679 9.138374,2.837392 l 4.674302,1.443116 v 5.452885 5.452886 l 1.49931,0.0042 c 1.64829,0.0046 4.593,0.702607 5.88801,1.395674 1.28493,0.687675 3.91347,3.224749 4.81103,4.643625 3.61131,5.708759 1.70456,13.686179 -4.17281,17.458119 -2.44276,1.5677 -6.42512,2.24923 -8.9125,1.52527 z M 79.803374,102.39266 V 91.103771 h -1.058333 -1.058334 v 11.288889 11.28889 h 1.058334 1.058333 z m 2.116667,0.35278 c 0,-7.055558 -0.12518,-10.936113 -0.352778,-10.936113 -0.227599,0 -0.352778,3.880555 -0.352778,10.936113 0,7.05555 0.125179,10.93611 0.352778,10.93611 0.227598,0 0.352778,-3.88056 0.352778,-10.93611 z m 3.175,-0.35278 V 91.103771 h -1.058334 -1.058333 v 11.288889 11.28889 h 1.058333 1.058334 z m 11.994445,10.7815 c 0,-0.085 -0.482456,-0.68036 -1.072127,-1.32292 -2.00707,-2.18712 -2.971095,-4.70539 -3.107433,-8.1174 -0.144232,-3.6096 0.420377,-5.686986 2.242034,-8.24919 0.664661,-0.934857 1.142548,-1.765671 1.06197,-1.846249 -0.108091,-0.108092 -8.707355,-1.801984 -9.266806,-1.825385 -0.04851,-0.002 -0.08819,4.838186 -0.08819,10.756034 v 10.75972 h 5.115278 c 2.813403,0 5.115278,-0.0696 5.115278,-0.15461 z m 12.575074,-0.83999 c 2.18056,-1.11244 3.40152,-2.28113 4.55089,-4.35608 0.92499,-1.66985 1.04209,-2.21823 1.04209,-4.87987 0,-2.66165 -0.1171,-3.210024 -1.04209,-4.87988 -1.94483,-3.510979 -4.70644,-5.156725 -8.6593,-5.160393 -3.96331,-0.0037 -7.0558,1.861296 -8.822395,5.320487 -1.241658,2.431316 -1.267312,6.972456 -0.05257,9.305896 1.380613,2.65207 3.475555,4.45822 6.101945,5.26076 1.77347,0.54192 5.22175,0.23579 6.88143,-0.61092 z m -8.27119,-3.30929 c -0.27445,-0.27445 -0.42333,-1.70117 -0.42333,-4.05694 0,-2.99469 0.0931,-3.63361 0.52917,-3.63361 0.37143,0 0.52916,-0.37496 0.52916,-1.25792 0,-2.35978 1.45244,-4.012763 3.53748,-4.025904 0.68444,-0.0043 1.57537,0.223957 1.97986,0.50727 1.35367,0.948154 1.98579,3.718214 0.84847,3.718214 -0.19751,0 -0.58488,-0.540325 -0.86081,-1.200725 -1.14531,-2.741105 -4.09388,-1.741911 -4.09388,1.387305 0,0.82833 0.0727,0.84834 3.43958,0.94718 l 3.43958,0.10097 0.10252,3.12687 c 0.1528,4.66066 0.003,4.81063 -4.80259,4.81063 -2.48664,0 -3.94832,-0.14645 -4.22521,-0.42334 z m 4.72261,-5.13165 c -0.0971,-0.0971 -0.42917,-0.0797 -0.73785,0.0387 -0.43938,0.16861 -0.50922,0.5036 -0.32166,1.54289 0.3764,2.08571 0.63248,2.17073 0.94592,0.31403 0.15961,-0.94548 0.21073,-1.79852 0.11359,-1.89566 z m -5.58422,-12.858315 1.86841,-0.774412 -0.0977,-4.770852 -0.0977,-4.770852 -5.82083,-1.825986 C 93.182472,77.888521 89.729659,76.820571 88.711013,76.519591 L 86.85893,75.972355 v 6.860153 c 0,3.773083 0.03969,6.868778 0.08819,6.879322 1.135923,0.246903 10.823682,2.025944 11.193876,2.055622 0.287292,0.02303 1.363133,-0.306611 2.390764,-0.732537 z M 81.920041,83.166271 c 0,-4.821297 -0.128532,-7.584723 -0.352778,-7.584723 -0.224246,0 -0.352778,2.763426 -0.352778,7.584723 0,4.821296 0.128532,7.584722 0.352778,7.584722 0.224246,0 0.352778,-2.763426 0.352778,-7.584722 z M 79.803374,82.637104 V 75.22877 h -1.058333 -1.058334 v 7.408334 7.408334 h 1.058334 1.058333 z m 5.291667,0 V 75.22877 h -1.058334 -1.058333 v 7.408334 7.408334 h 1.058333 1.058334 z"
       id="path21"
       inkscape:connector-curvature="0" />
  </g>
</svg>
